<?xml version="1.0" encoding="UTF-8"?>
<svg version="1.1" xmlns="http://www.w3.org/2000/svg" width="846" height="324">
<path d="M0 0 C5.55945909 3.439234 8.66150528 8.1763196 11.5625 13.875 C12.41645154 15.47936838 13.27338932 17.08214974 14.1328125 18.68359375 C14.58946289 19.53937012 15.04611328 20.39514648 15.51660156 21.27685547 C18.21332053 26.22734976 21.08275918 31.07699751 23.9375 35.9375 C25.12761841 37.97264792 26.31772265 40.00780413 27.5078125 42.04296875 C29.22992294 44.9829595 30.95394349 47.92177343 32.68261719 50.85791016 C34.22992127 53.48627768 35.77156241 56.11789673 37.3125 58.75 C38.00557251 59.91970337 38.00557251 59.91970337 38.71264648 61.11303711 C39.34408569 62.19403687 39.34408569 62.19403687 39.98828125 63.296875 C40.35477783 63.91916992 40.72127441 64.54146484 41.09887695 65.18261719 C42.0953517 67.19230508 42.78580546 68.75669723 43 71 C41.85693359 72.72509766 41.85693359 72.72509766 40 74 C37.81103516 74.38818359 37.81103516 74.38818359 35.2890625 74.3984375 C33.91621094 74.40423828 33.91621094 74.40423828 32.515625 74.41015625 C31.56171875 74.39855469 30.6078125 74.38695312 29.625 74.375 C28.67882812 74.38660156 27.73265625 74.39820313 26.7578125 74.41015625 C25.38109375 74.40435547 25.38109375 74.40435547 23.9765625 74.3984375 C23.14205566 74.39505371 22.30754883 74.39166992 21.44775391 74.38818359 C18.2927809 73.88784377 16.54496634 72.93673377 14 71 C12.10302734 68.33618164 12.10302734 68.33618164 10.3359375 65.16015625 C9.68882812 64.01482422 9.04171875 62.86949219 8.375 61.68945312 C7.70778128 60.48077333 7.04111967 59.27178584 6.375 58.0625 C5.05397367 55.69666772 3.72619115 53.33472999 2.3984375 50.97265625 C1.52711182 49.39883179 1.52711182 49.39883179 0.63818359 47.79321289 C-0.77738263 45.37957755 -2.26586546 43.19084916 -4 41 C-4.40613525 41.7120459 -4.81227051 42.4240918 -5.23071289 43.15771484 C-17.985095 65.51318823 -30.7690885 87.85193757 -43.78149414 110.05859375 C-46.8243387 115.25291399 -49.83812179 120.46143458 -52.8125 125.6953125 C-53.44019287 126.79214355 -54.06788574 127.88897461 -54.71459961 129.01904297 C-55.91631198 131.12017409 -57.11027606 133.22576229 -58.29516602 135.33642578 C-61.47087478 140.86648249 -64.13763658 145.06881829 -70 148 C-75.10193211 148.58355433 -80.32501172 149.13627177 -84.625 145.9375 C-87.50125931 142.38002138 -88.0786465 140.56149694 -88 136 C-85.60557279 129.499636 -82.08908637 123.57918685 -78.6875 117.5625 C-78.06866943 116.46284912 -77.44983887 115.36319824 -76.81225586 114.23022461 C-71.48802573 104.79913545 -66.04359655 95.44047161 -60.56640625 86.09765625 C-56.8466506 79.74953337 -53.17110157 73.37634815 -49.5 67 C-44.10197716 57.62972887 -38.6833087 48.27198343 -33.21899414 38.94018555 C-30.18300029 33.75428894 -27.1692514 28.55715113 -24.1875 23.33984375 C-23.55980713 22.24752441 -22.93211426 21.15520508 -22.28540039 20.02978516 C-21.08548377 17.9406715 -19.89159901 15.84807748 -18.70483398 13.75146484 C-10.11221505 -1.16041812 -10.11221505 -1.16041812 0 0 Z " fill="#AC383E" transform="translate(131,83)"/>
<path d="M0 0 C7.58010017 -0.20304765 15.1594982 -0.34302427 22.74169922 -0.43945312 C25.32009079 -0.47965438 27.89830034 -0.5342259 30.47607422 -0.60351562 C34.18502692 -0.70070591 37.8915677 -0.74596246 41.6015625 -0.78125 C42.75177887 -0.82254028 43.90199524 -0.86383057 45.08706665 -0.90637207 C52.89260823 -0.91073649 52.89260823 -0.91073649 55.9811554 1.6293335 C57.55783027 3.67881759 58.79798308 5.71338412 60 8 C60.61222412 8.99418945 61.22444824 9.98837891 61.85522461 11.01269531 C62.36577393 11.94178711 62.87632324 12.87087891 63.40234375 13.828125 C63.98306641 14.87613281 64.56378906 15.92414063 65.16210938 17.00390625 C65.74798828 18.07511719 66.33386719 19.14632812 66.9375 20.25 C69.28309726 24.50480434 71.63539046 28.75572955 74 33 C74.95543701 34.71799805 74.95543701 34.71799805 75.93017578 36.47070312 C76.55263184 37.56833984 77.17508789 38.66597656 77.81640625 39.796875 C78.3791626 40.79557617 78.94191895 41.79427734 79.52172852 42.82324219 C80.00955811 43.54157227 80.4973877 44.25990234 81 45 C81.66 45 82.32 45 83 45 C83.96375913 49.81879564 84.46525633 54.11480858 84 59 C81.82425584 61.69105198 80.08934144 63.45532928 77 65 C62.61692738 66.50719699 48.05947115 66.1295559 33.62109375 66.09765625 C31.11190316 66.09578708 28.6027122 66.09436554 26.09352112 66.09336853 C19.54573528 66.08958258 12.99797225 66.07978659 6.45019531 66.06866455 C-0.25390174 66.05781055 -6.95800597 66.05385281 -13.66210938 66.04882812 C-26.77474921 66.03816013 -39.88737338 66.02132892 -53 66 C-49.1224859 55.7572286 -40.53065024 48.93012023 -31 44 C-24.25578545 41.17077067 -17.7838336 39.8722644 -10.46557617 39.88647461 C-9.16460495 39.88655014 -7.86363373 39.88662567 -6.52323914 39.88670349 C-5.11314861 39.89180938 -3.70305849 39.89702536 -2.29296875 39.90234375 C-0.84279937 39.90421021 0.60737065 39.90563304 2.05754089 39.90663147 C5.86332966 39.9104387 9.66907991 39.92025358 13.47485352 39.93133545 C17.36278767 39.94158823 21.25072808 39.94613736 25.13867188 39.95117188 C32.75913209 39.96187754 40.37956064 39.9789323 48 40 C47.57589844 39.28344238 47.15179688 38.56688477 46.71484375 37.82861328 C44.80539326 34.59671096 42.90262197 31.36092656 41 28.125 C40.33226562 26.99707031 39.66453125 25.86914062 38.9765625 24.70703125 C38.34492188 23.63066406 37.71328125 22.55429688 37.0625 21.4453125 C36.47597656 20.45031738 35.88945312 19.45532227 35.28515625 18.43017578 C34 16 34 16 34 14 C33.14559326 13.85522217 33.14559326 13.85522217 32.27392578 13.70751953 C24.9298428 12.3614697 17.95963493 10.20633917 10.875 7.875 C9.72773438 7.50246094 8.58046875 7.12992188 7.3984375 6.74609375 C4.59728787 5.83572012 1.79790983 4.92027251 -1 4 C-0.67 2.68 -0.34 1.36 0 0 Z " fill="#383C47" transform="translate(127,166)"/>
<path d="M0 0 C5.28 0 10.56 0 16 0 C17.17215114 3.43571853 18.33792147 6.8733757 19.5 10.3125 C19.83386719 11.28896484 20.16773438 12.26542969 20.51171875 13.27148438 C20.82753906 14.20927734 21.14335937 15.14707031 21.46875 16.11328125 C21.90864258 17.40939331 21.90864258 17.40939331 22.35742188 18.73168945 C23 21 23 21 23 24 C23.66 24 24.32 24 25 24 C25.226875 22.824375 25.45375 21.64875 25.6875 20.4375 C27.22200474 13.44822295 29.68513395 6.76184558 32 0 C36.95 0 41.9 0 47 0 C50.11011723 7.85713826 52.52134441 15.92722447 55 24 C55.3556604 22.9627478 55.3556604 22.9627478 55.71850586 21.90454102 C56.78849543 18.78948439 57.86293565 15.67598131 58.9375 12.5625 C59.31068359 11.47388672 59.68386719 10.38527344 60.06835938 9.26367188 C60.42607422 8.22919922 60.78378906 7.19472656 61.15234375 6.12890625 C61.6472229 4.69140015 61.6472229 4.69140015 62.15209961 3.22485352 C63 1 63 1 64 0 C66.53049402 -0.07313567 69.03304837 -0.09247527 71.5625 -0.0625 C72.62887695 -0.05573242 72.62887695 -0.05573242 73.71679688 -0.04882812 C75.47790013 -0.03700864 77.23896036 -0.01907263 79 0 C77.67786336 6.36243391 76.00059854 12.46236277 73.9609375 18.62890625 C73.67521881 19.50401352 73.38950012 20.37912079 73.09512329 21.28074646 C72.19237753 24.0426469 71.28379649 26.80258538 70.375 29.5625 C69.75742376 31.44844045 69.14023261 33.33450706 68.5234375 35.22070312 C67.0200699 39.81527145 65.51147024 44.40809114 64 49 C58.39 49 52.78 49 47 49 C46.50628906 47.49566406 46.01257813 45.99132812 45.50390625 44.44140625 C44.85692813 42.4817189 44.20978416 40.52208629 43.5625 38.5625 C43.23701172 37.56927734 42.91152344 36.57605469 42.57617188 35.55273438 C42.10727539 34.13637695 42.10727539 34.13637695 41.62890625 32.69140625 C41.34088135 31.81685791 41.05285645 30.94230957 40.75610352 30.04125977 C40.17466716 28.03551105 40.17466716 28.03551105 39 27 C36.69 34.26 34.38 41.52 32 49 C26.39 49 20.78 49 15 49 C11.47502446 40.65755789 8.70124176 32.14610818 5.99853516 23.51171875 C5.24437963 21.10707935 4.47992193 18.70587095 3.71484375 16.3046875 C3.23114817 14.76842507 2.74805325 13.23197337 2.265625 11.6953125 C2.03756165 10.98174591 1.80949829 10.26817932 1.57452393 9.5329895 C0.52605039 6.15394662 0 3.57931536 0 0 Z " fill="#353944" transform="translate(371,136)"/>
<path d="M0 0 C2.078125 1.12109375 2.078125 1.12109375 3.9375 2.3125 C4.50984375 2.67472656 5.0821875 3.03695312 5.671875 3.41015625 C10.80852697 7.16092934 12.98871748 12.46615243 14.9375 18.3125 C15.71954581 26.64429571 14.40331355 33.54125575 9.8125 40.5625 C2.19663467 47.84724075 -5.38457788 49.70126594 -15.671875 49.5859375 C-23.4706922 48.95700063 -29.43895689 45.96323151 -34.66015625 40.15234375 C-39.15071142 34.26083543 -40.22593905 27.56510786 -40.0625 20.3125 C-38.99862094 14.32818031 -36.42269273 8.60857225 -32.0625 4.3125 C-22.73641233 -2.02529901 -10.73301468 -4.55006434 0 0 Z M-20.0625 14.3125 C-23.1355392 17.28310456 -23.89949815 20.07445192 -24.0625 24.3125 C-23.18802743 28.42720575 -22.00521653 31.45058775 -18.875 34.3125 C-15.14741354 35.63786407 -11.97043428 36.02447183 -8.0625 35.3125 C-5.03350027 33.53460886 -3.5086708 32.04259767 -1.6875 29.0625 C-0.54188626 24.02179953 -1.14663985 19.93286796 -3.6875 15.4375 C-9.20292685 10.50264439 -13.83835033 10.72164442 -20.0625 14.3125 Z " fill="#353944" transform="translate(355.0625,136.6875)"/>
<path d="M0 0 C4.764375 -0.0825 9.52875 -0.165 14.4375 -0.25 C16.66391235 -0.30462402 16.66391235 -0.30462402 18.93530273 -0.36035156 C27.7716911 -0.43418164 34.55803273 0.24141231 41.4375 6.0625 C44.61824588 12.04230226 45.8607389 18.37262549 43.875 24.9375 C42.51477138 28.3411214 40.91377082 30.68907832 38 33 C39.42498434 37.14540898 41.54630001 40.52253817 43.9765625 44.1328125 C45 46 45 46 45 49 C33.95194072 50.32737605 33.95194072 50.32737605 29 49 C26.10451472 46.38007335 24.51141012 43.93421032 22.67578125 40.50390625 C21.2162573 37.75715685 21.2162573 37.75715685 18.29296875 37.15234375 C17.53628906 37.10207031 16.77960938 37.05179688 16 37 C16.01160156 37.78246094 16.02320313 38.56492188 16.03515625 39.37109375 C16.04417969 40.38300781 16.05320312 41.39492187 16.0625 42.4375 C16.07410156 43.44683594 16.08570313 44.45617187 16.09765625 45.49609375 C16 48 16 48 15 49 C10.05 49 5.1 49 0 49 C0 32.83 0 16.66 0 0 Z M16 13 C16 16.63 16 20.26 16 24 C21.4159661 24.35144861 21.4159661 24.35144861 26.5 22.875 C28.26549579 20.99355816 28.26549579 20.99355816 28.4375 17.9375 C28.293125 16.968125 28.14875 15.99875 28 15 C23.7975546 12.19836974 20.99895065 12.85510288 16 13 Z " fill="#353944" transform="translate(267,136)"/>
<path d="M0 0 C3.15934407 1.87752265 6.00537394 3.79117474 8.25 6.75 C8.25 8.75 8.25 8.75 6.640625 10.4765625 C5.93421875 11.10304687 5.2278125 11.72953125 4.5 12.375 C3.80390625 13.00664062 3.1078125 13.63828125 2.390625 14.2890625 C0.25 15.75 0.25 15.75 -3.75 15.75 C-5.42419438 14.7626546 -7.09051852 13.76187895 -8.75 12.75 C-12.9950044 11.33499853 -15.67777948 11.97946934 -19.75 13.75 C-22.22389105 15.79735811 -23.59816702 17.48306578 -23.98828125 20.73828125 C-24.1213075 24.90410332 -24.13831668 27.12869331 -21.875 30.75 C-17.72826195 34.65281229 -14.25028943 33.82857556 -8.75 33.75 C-8.42 29.46 -8.09 25.17 -7.75 20.75 C-3.13 20.75 1.49 20.75 6.25 20.75 C6.35770003 24.35495944 6.43717372 27.95672033 6.5 31.5625 C6.53351563 32.58666016 6.56703125 33.61082031 6.6015625 34.66601562 C6.61445313 35.64892578 6.62734375 36.63183594 6.640625 37.64453125 C6.66157227 38.55050049 6.68251953 39.45646973 6.70410156 40.38989258 C6.25 42.75 6.25 42.75 4.3581543 44.50976562 C-3.95480323 49.40030694 -14.25890883 50.26880685 -23.5546875 48.09375 C-30.93945323 45.49000281 -35.78676685 41.21837856 -39.625 34.4375 C-42.21571552 25.94571023 -42.59434894 18.45791645 -38.59375 10.4296875 C-30.95672639 -2.42596891 -13.33232076 -6.49676617 0 0 Z " fill="#353944" transform="translate(252.75,137.25)"/>
<path d="M0 0 C5.28 0 10.56 0 16 0 C16.04898437 2.03542969 16.09796875 4.07085937 16.1484375 6.16796875 C16.20408724 8.15049079 16.25980372 10.13301157 16.31738281 12.11547852 C16.35554288 13.48778581 16.39041796 14.86018871 16.421875 16.23266602 C16.46780682 18.2113229 16.52673637 20.18966442 16.5859375 22.16796875 C16.63306885 23.95110474 16.63306885 23.95110474 16.68115234 25.77026367 C17.01393096 29.14111233 17.51069791 32.51069791 20 35 C21.51928038 35.07179964 23.04167482 35.08392007 24.5625 35.0625 C25.38878906 35.05347656 26.21507812 35.04445312 27.06640625 35.03515625 C27.70449219 35.02355469 28.34257812 35.01195312 29 35 C30.1486567 31.28832638 30.20542433 27.69663773 30.31640625 23.828125 C30.33718735 23.1457074 30.35796844 22.46328979 30.37937927 21.76019287 C30.44452052 19.59022644 30.50359404 17.42014376 30.5625 15.25 C30.60571897 13.77472779 30.64933432 12.29946713 30.69335938 10.82421875 C30.80090811 7.21626301 30.90024352 3.60821322 31 0 C36.28 0 41.56 0 47 0 C47.06932428 4.39310549 47.12891433 8.78427112 47.16479492 13.17749023 C47.17977042 14.66811598 47.20015819 16.15869851 47.22631836 17.64916992 C47.5480695 36.46845708 47.5480695 36.46845708 42.16796875 43.33984375 C41.51441406 43.86707031 40.86085938 44.39429688 40.1875 44.9375 C39.54167969 45.48277344 38.89585937 46.02804688 38.23046875 46.58984375 C31.13653644 51.0747992 22.69021841 50.9452501 14.625 49.60546875 C9.00862476 47.9051989 4.9721592 43.98840775 2 39 C-0.81350641 31.25360241 -0.22271088 23.12475184 -0.125 15 C-0.11495155 13.54297489 -0.10582899 12.08594309 -0.09765625 10.62890625 C-0.07750112 7.08563461 -0.03832903 3.54330619 0 0 Z " fill="#353944" transform="translate(454,136)"/>
<path d="M0 0 C4.764375 -0.0825 9.52875 -0.165 14.4375 -0.25 C16.66391235 -0.30462402 16.66391235 -0.30462402 18.93530273 -0.36035156 C26.36088115 -0.42239399 32.68312225 -0.23378015 39 4 C44.32667437 9.45984123 44.34642434 14.49601161 44.28125 21.828125 C43.80598082 27.18810524 41.39624893 29.64148753 37.6875 33.25 C30.82592605 37.71800164 23.9393249 37.23465985 16 37 C16.01160156 37.78246094 16.02320313 38.56492188 16.03515625 39.37109375 C16.04417969 40.38300781 16.05320312 41.39492187 16.0625 42.4375 C16.07410156 43.44683594 16.08570313 44.45617187 16.09765625 45.49609375 C16 48 16 48 15 49 C10.05 49 5.1 49 0 49 C0 32.83 0 16.66 0 0 Z M16 13 C16 16.63 16 20.26 16 24 C21.4159661 24.35144861 21.4159661 24.35144861 26.5 22.875 C28.26549579 20.99355816 28.26549579 20.99355816 28.4375 17.9375 C28.293125 16.968125 28.14875 15.99875 28 15 C23.7975546 12.19836974 20.99895065 12.85510288 16 13 Z " fill="#353944" transform="translate(509,136)"/>
<path d="M0 0 C5.93145164 4.83794379 9.28820776 9.3961768 10.09765625 17.0859375 C10.32590053 24.27563243 10.43507238 30.77402729 5.72265625 36.5234375 C0.72753388 41.75840917 -3.60640378 45.19077065 -10.984375 45.859375 C-19.76170485 46.05497009 -26.46062442 45.86044291 -33.19921875 39.79296875 C-38.55079517 34.25342374 -41.26994157 28.23266535 -41.65234375 20.5234375 C-41.31016802 13.05508028 -38.69900954 6.70937869 -33.27734375 1.5234375 C-22.95540537 -5.40164479 -10.87607453 -7.05172585 0 0 Z M-31.27734375 9.5234375 C-34.63331399 14.07796854 -35.71910202 18.29600357 -34.9453125 23.94921875 C-33.57222836 29.78704099 -31.34137168 33.49341042 -26.58203125 37.171875 C-21.87410186 39.93279631 -17.26762052 41.00014829 -11.8515625 40.13671875 C-5.35212466 38.24696624 -0.88458468 35.25574709 2.59765625 29.3359375 C4.21788399 23.84516573 5.03395035 18.66946409 2.7734375 13.24609375 C-0.25191991 8.12111921 -3.67335324 4.63151857 -9.21484375 2.2734375 C-18.07989116 0.10240548 -25.43812378 2.51637354 -31.27734375 9.5234375 Z " fill="#353944" transform="translate(702.27734375,139.4765625)"/>
<path d="M0 0 C4.125 -0.0825 8.25 -0.165 12.5 -0.25 C13.78455078 -0.28641602 15.06910156 -0.32283203 16.39257812 -0.36035156 C23.43063165 -0.42823571 28.06831457 0.1108289 34 4 C38.25749043 9.10898851 38.62057806 13.61741249 38.390625 20.1875 C37.706243 25.1150504 35.46979616 27.77516987 31.75 30.875 C30.88375 31.431875 30.88375 31.431875 30 32 C31.97015352 36.31033588 34.80395467 39.88502977 37.63671875 43.66015625 C38.08660156 44.43230469 38.53648437 45.20445312 39 46 C38.67 46.99 38.34 47.98 38 49 C35.2734375 49.43359375 35.2734375 49.43359375 32 49 C30.31173202 46.68832564 28.99028624 44.54830005 27.625 42.0625 C24.67007823 37.19336981 24.67007823 37.19336981 19.98242188 34.23876953 C15.17848787 33.37908429 10.9725567 33.74715813 6 34 C6 38.95 6 43.9 6 49 C4.02 49 2.04 49 0 49 C0 32.83 0 16.66 0 0 Z M6 6 C6 13.26 6 20.52 6 28 C8.68125 28.061875 11.3625 28.12375 14.125 28.1875 C15.37434326 28.22846802 15.37434326 28.22846802 16.64892578 28.27026367 C21.51415593 28.32424439 24.78149514 27.68158007 29 25 C31.39398482 22.12721821 31.96024433 20.27332022 32.5 16.5625 C31.83270551 11.80802675 30.40702151 10.32778845 27 7 C24.23434618 6.07811539 22.61716298 5.88214778 19.76953125 5.90234375 C18.68442261 5.90609009 18.68442261 5.90609009 17.57739258 5.90991211 C16.20877075 5.92356812 16.20877075 5.92356812 14.8125 5.9375 C11.904375 5.958125 8.99625 5.97875 6 6 Z " fill="#353944" transform="translate(616,136)"/>
<path d="M0 0 C3.125 2.1875 3.125 2.1875 5 4 C4.34 5.32 3.68 6.64 3 8 C-1 8 -1 8 -3.6875 6.5625 C-9.35696168 3.88822562 -14.6099364 3.34248265 -20.6875 5 C-25.40897368 6.78605659 -28.31564338 9.78172531 -31 14 C-32.75516778 19.26550334 -33.07215936 25.09603473 -31.12890625 30.359375 C-28.29150252 35.30855134 -25.20981542 37.75438991 -20 40 C-13.92053881 41.54749921 -8.63246871 40.81623436 -3 38 C-2.7137306 35.30847736 -2.53256862 32.69902132 -2.4375 30 C-2.11929275 22.11929275 -2.11929275 22.11929275 -1 21 C0.65 21 2.3 21 4 21 C4 27.93 4 34.86 4 42 C-4.61394588 47.38371617 -12.13948055 48.08870089 -22 47 C-28.78387967 45.33251202 -33.0018767 40.50852544 -37 35 C-40.5791718 28.65510453 -40.53816527 20.95712628 -38.71875 14.0625 C-36.6150427 8.02577471 -32.30657166 3.42001481 -27 0 C-17.68917457 -3.99676912 -9.34130328 -3.77123562 0 0 Z " fill="#353944" transform="translate(598,138)"/>
<path d="M0 0 C3.96 -0.0825 7.92 -0.165 12 -0.25 C13.84851563 -0.30462402 13.84851563 -0.30462402 15.734375 -0.36035156 C22.66604343 -0.42993761 27.13233304 0.23234016 33 4 C37.3630698 8.58681697 38.37379935 12.42371969 38.2734375 18.5859375 C37.74033073 23.29250866 36.06430751 27.3428065 32.31640625 30.3515625 C27.92130658 32.97917048 23.94861891 34.13597439 18.890625 34.09765625 C18.13652344 34.09443359 17.38242187 34.09121094 16.60546875 34.08789062 C15.82816406 34.07951172 15.05085937 34.07113281 14.25 34.0625 C13.45722656 34.05798828 12.66445313 34.05347656 11.84765625 34.04882812 C9.89840492 34.03708565 7.94919262 34.01915146 6 34 C6 38.95 6 43.9 6 49 C4.02 49 2.04 49 0 49 C0 32.83 0 16.66 0 0 Z M6 6 C6 13.26 6 20.52 6 28 C8.495625 28.061875 10.99125 28.12375 13.5625 28.1875 C14.33408447 28.21481201 15.10566895 28.24212402 15.90063477 28.27026367 C21.0022452 28.33072624 24.48725297 27.41855925 29 25 C31.47814609 21.59254913 32 19.64943093 32 15.4375 C30.81383817 11.36006871 29.23715865 9.68447302 26 7 C23.703463 5.8517315 22.41686833 5.88438825 19.8671875 5.90234375 C19.14128418 5.90484131 18.41538086 5.90733887 17.66748047 5.90991211 C16.74596191 5.91901611 15.82444336 5.92812012 14.875 5.9375 C10.481875 5.9684375 10.481875 5.9684375 6 6 Z " fill="#353944" transform="translate(778,136)"/>
<path d="M0 0 C1.98 0 3.96 0 6 0 C6.02187378 1.45237061 6.02187378 1.45237061 6.04418945 2.93408203 C6.10241567 6.54626324 6.17964536 10.15783683 6.26245117 13.76953125 C6.29558667 15.32900081 6.3236537 16.88858702 6.34643555 18.44824219 C6.38019281 20.69776852 6.43251504 22.94623687 6.48828125 25.1953125 C6.49467117 25.8861795 6.5010611 26.57704651 6.50764465 27.28884888 C6.67019155 32.71057964 7.92780968 36.92780968 11.8125 40.8125 C16.74265829 43.48887165 21.0244484 43.17180361 26.23828125 41.65234375 C28.5825284 40.78429658 29.6681061 40.14582905 31 38 C32.63172948 33.08383328 33.28538708 28.70361893 33.4140625 23.53515625 C33.43342865 22.85698349 33.4527948 22.17881073 33.4727478 21.48008728 C33.53191999 19.34101434 33.57867519 17.20188572 33.625 15.0625 C33.66323745 13.60088964 33.70229242 12.13930043 33.7421875 10.67773438 C33.83756819 7.11868457 33.92182567 3.55947413 34 0 C35.98 0 37.96 0 40 0 C40.07466101 4.69560343 40.12884101 9.39085443 40.16479492 14.08691406 C40.17979745 15.68137641 40.20020621 17.27579808 40.22631836 18.87011719 C40.26308134 21.17393077 40.27981155 23.4771946 40.29296875 25.78125 C40.30845261 26.48366821 40.32393646 27.18608643 40.33988953 27.90979004 C40.34186047 33.82542087 39.17371889 39.3964776 35.28125 44.05859375 C34.6934375 44.51363281 34.105625 44.96867187 33.5 45.4375 C32.9121875 45.91058594 32.324375 46.38367188 31.71875 46.87109375 C26.12464549 50.5454033 18.40382875 49.56700567 12 49 C7.92274176 47.75619354 5.32043445 45.81224412 2.81030273 42.3671875 C-1.33810333 34.37571748 -0.43630418 25.68412974 -0.25 16.9375 C-0.22990347 15.29233946 -0.21165827 13.64715521 -0.1953125 12.00195312 C-0.15156759 8.00070931 -0.0827166 4.00062015 0 0 Z " fill="#353944" transform="translate(723,136)"/>
<path d="M0 0 C0.33 0.66 0.66 1.32 1 2 C43.24 2 85.48 2 129 2 C129 2.33 129 2.66 129 3 C114.53926354 4.11545332 100.1181776 4.1296856 85.62109375 4.09765625 C83.11190316 4.09578708 80.6027122 4.09436554 78.09352112 4.09336853 C71.54573528 4.08958258 64.99797225 4.07978659 58.45019531 4.06866455 C51.74609826 4.05781055 45.04199403 4.05385281 38.33789062 4.04882812 C25.22525079 4.03816013 12.11262662 4.02132892 -1 4 C-0.67 2.68 -0.34 1.36 0 0 Z " fill="#5B5E66" transform="translate(75,228)"/>
<path d="M0 0 C1.32 0.66 2.64 1.32 4 2 C3.625 4.4375 3.625 4.4375 3 7 C-0.75598459 8.8779923 -5.30473982 8.18475762 -9.4375 8.1875 C-10.40494141 8.19974609 -11.37238281 8.21199219 -12.36914062 8.22460938 C-13.76229492 8.22750977 -13.76229492 8.22750977 -15.18359375 8.23046875 C-16.03493896 8.23457764 -16.88628418 8.23868652 -17.76342773 8.24291992 C-20 8 -20 8 -23 6 C-21.28103516 6.01740234 -21.28103516 6.01740234 -19.52734375 6.03515625 C-17.99739748 6.04454242 -16.46744942 6.05364173 -14.9375 6.0625 C-14.18533203 6.07087891 -13.43316406 6.07925781 -12.65820312 6.08789062 C-7.99366882 6.10808341 -3.60076827 5.77595959 1 5 C0.67 3.35 0.34 1.7 0 0 Z " fill="#B1555C" transform="translate(170,149)"/>
<path d="M0 0 C0.33 0.66 0.66 1.32 1 2 C12.22 2 23.44 2 35 2 C34.67 2.66 34.34 3.32 34 4 C22.45 4 10.9 4 -1 4 C-0.67 2.68 -0.34 1.36 0 0 Z " fill="#575A62" transform="translate(75,228)"/>
<path d="M0 0 C0.33 0.66 0.66 1.32 1 2 C4.96 2 8.92 2 13 2 C11 4 11 4 8.1796875 4.1953125 C7.08914062 4.17210937 5.99859375 4.14890625 4.875 4.125 C3.77929688 4.10695312 2.68359375 4.08890625 1.5546875 4.0703125 C0.71164063 4.04710937 -0.13140625 4.02390625 -1 4 C-0.67 2.68 -0.34 1.36 0 0 Z " fill="#6F7178" transform="translate(75,228)"/>
<path d="M0 0 C0.66 0 1.32 0 2 0 C2 0.66 2 1.32 2 2 C1.34 2 0.68 2 0 2 C0 1.34 0 0.68 0 0 Z " fill="#DADADA" transform="translate(186,144)"/>
<path d="M0 0 C2 1 2 1 2 1 Z " fill="#DCDCDC" transform="translate(186,245)"/>
<path d="M0 0 C2 1 2 1 2 1 Z " fill="#DADADA" transform="translate(186,234)"/>
<path d="M0 0 C2 1 2 1 2 1 Z " fill="#DCDCDC" transform="translate(175,234)"/>
<path d="M0 0 C2 1 2 1 2 1 Z " fill="#DBDBDB" transform="translate(164,234)"/>
<path d="M0 0 C2 1 2 1 2 1 Z " fill="#DEDEDE" transform="translate(119,234)"/>
<path d="M0 0 C2 1 2 1 2 1 Z " fill="#DADADA" transform="translate(108,234)"/>
<path d="M0 0 C2 1 2 1 2 1 Z " fill="#DADADA" transform="translate(97,234)"/>
<path d="M0 0 C2 1 2 1 2 1 Z " fill="#DEDEDE" transform="translate(86,234)"/>
<path d="M0 0 C2 1 2 1 2 1 Z " fill="#DADADA" transform="translate(75,234)"/>
<path d="" fill="#DADADA" transform="translate(0,0)"/>
<path d="" fill="#DCDCDC" transform="translate(0,0)"/>
<path d="" fill="#E0DEE1" transform="translate(0,0)"/>
<path d="" fill="#DBDBDB" transform="translate(0,0)"/>
<path d="M0 0 C2 1 2 1 2 1 Z " fill="#DADADA" transform="translate(197,178)"/>
<path d="M0 0 C2 1 2 1 2 1 Z " fill="#DADADA" transform="translate(142,178)"/>
<path d="M0 0 C2 1 2 1 2 1 Z " fill="#DDDDDD" transform="translate(119,178)"/>
<path d="M0 0 C2 1 2 1 2 1 Z " fill="#DADADA" transform="translate(108,178)"/>
<path d="M0 0 C2 1 2 1 2 1 Z " fill="#DBD9DB" transform="translate(97,178)"/>
<path d="M0 0 C2 1 2 1 2 1 Z " fill="#DADADA" transform="translate(186,156)"/>
<path d="" fill="#DADADA" transform="translate(0,0)"/>
<path d="" fill="#DBDBDB" transform="translate(0,0)"/>
<path d="" fill="#DADADA" transform="translate(0,0)"/>
<path d="" fill="#DADADA" transform="translate(0,0)"/>
<path d="" fill="#DBDBDB" transform="translate(0,0)"/>
<path d="" fill="#DCDCDC" transform="translate(0,0)"/>
<path d="" fill="#DBDBDB" transform="translate(0,0)"/>
<path d="" fill="#DCDCDC" transform="translate(0,0)"/>
<path d="" fill="#DDDDDE" transform="translate(0,0)"/>
<path d="" fill="#DBDBDB" transform="translate(0,0)"/>
<path d="" fill="#DCDCDC" transform="translate(0,0)"/>
<path d="" fill="#DBDBDB" transform="translate(0,0)"/>
<path d="M0 0 C2 1 2 1 2 1 Z " fill="#D8D8D8" transform="translate(186,122)"/>
<path d="M0 0 C2 1 2 1 2 1 Z " fill="#DCDCDC" transform="translate(175,122)"/>
<path d="M0 0 C2 1 2 1 2 1 Z " fill="#D8D8D8" transform="translate(164,122)"/>
<path d="M0 0 C2 1 2 1 2 1 Z " fill="#DCDCDC" transform="translate(86,122)"/>
<path d="M0 0 C2 1 2 1 2 1 Z " fill="#DCDCDC" transform="translate(186,111)"/>
<path d="M0 0 C2 1 2 1 2 1 Z " fill="#DCDCDC" transform="translate(75,111)"/>
<path d="M0 0 C2 1 2 1 2 1 Z " fill="#DADADA" transform="translate(197,100)"/>
<path d="M0 0 C2 1 2 1 2 1 Z " fill="#DADADA" transform="translate(186,100)"/>
<path d="M0 0 C2 1 2 1 2 1 Z " fill="#DCDCDC" transform="translate(175,100)"/>
<path d="M0 0 C2 1 2 1 2 1 Z " fill="#DBDBDB" transform="translate(164,100)"/>
<path d="M0 0 C2 1 2 1 2 1 Z " fill="#D7DADB" transform="translate(108,100)"/>
<path d="M0 0 C2 1 2 1 2 1 Z " fill="#DADADA" transform="translate(97,100)"/>
<path d="M0 0 C2 1 2 1 2 1 Z " fill="#DDDDDD" transform="translate(86,100)"/>
<path d="M0 0 C2 1 2 1 2 1 Z " fill="#DBDBDB" transform="translate(75,100)"/>
<path d="M0 0 C2 1 2 1 2 1 Z " fill="#DADADA" transform="translate(186,89)"/>
<path d="" fill="#DADADA" transform="translate(0,0)"/>
<path d="" fill="#DADADA" transform="translate(0,0)"/>
<path d="" fill="#DDDDDD" transform="translate(0,0)"/>
<path d="" fill="#DDDDDD" transform="translate(0,0)"/>
<path d="" fill="#DCDCDC" transform="translate(0,0)"/>
<path d="" fill="#DDDDDD" transform="translate(0,0)"/>
<path d="" fill="#DDDDDD" transform="translate(0,0)"/>
<path d="" fill="#DCDCDC" transform="translate(0,0)"/>
<path d="" fill="#DDDDDD" transform="translate(0,0)"/>
<path d="" fill="#DDDDDD" transform="translate(0,0)"/>
<path d="" fill="#DEDEDE" transform="translate(0,0)"/>
<path d="" fill="#DBDBDB" transform="translate(0,0)"/>
<path d="" fill="#DEDEDE" transform="translate(0,0)"/>
<path d="" fill="#DBDBDB" transform="translate(0,0)"/>
<path d="" fill="#DADADA" transform="translate(0,0)"/>
<path d="" fill="#DBDBDB" transform="translate(0,0)"/>
<path d="" fill="#DCDCDC" transform="translate(0,0)"/>
<path d="" fill="#DADADA" transform="translate(0,0)"/>
<path d="" fill="#DADADA" transform="translate(0,0)"/>
<path d="" fill="#DBDBDB" transform="translate(0,0)"/>
<path d="" fill="#DADADA" transform="translate(0,0)"/>
<path d="" fill="#DADADA" transform="translate(0,0)"/>
<path d="" fill="#DADADA" transform="translate(0,0)"/>
<path d="" fill="#DADADA" transform="translate(0,0)"/>
<path d="" fill="#DDDDDD" transform="translate(0,0)"/>
<path d="" fill="#DDDDDD" transform="translate(0,0)"/>
<path d="" fill="#DDDDDD" transform="translate(0,0)"/>
<path d="" fill="#DEDEDE" transform="translate(0,0)"/>
<path d="" fill="#D9D9D9" transform="translate(0,0)"/>
<path d="" fill="#DADEDD" transform="translate(0,0)"/>
<path d="" fill="#DADADA" transform="translate(0,0)"/>
<path d="" fill="#DADADA" transform="translate(0,0)"/>
<path d="" fill="#DCDCDC" transform="translate(0,0)"/>
<path d="" fill="#DCDCDC" transform="translate(0,0)"/>
<path d="" fill="#DCDCDC" transform="translate(0,0)"/>
<path d="" fill="#DEDEDE" transform="translate(0,0)"/>
<path d="" fill="#DADADA" transform="translate(0,0)"/>
<path d="" fill="#DCDCDC" transform="translate(0,0)"/>
<path d="" fill="#D9DCDB" transform="translate(0,0)"/>
<path d="" fill="#DADADA" transform="translate(0,0)"/>
<path d="" fill="#DBDBDB" transform="translate(0,0)"/>
<path d="" fill="#DADAD9" transform="translate(0,0)"/>
<path d="" fill="#DADADA" transform="translate(0,0)"/>
<path d="" fill="#DBDBDB" transform="translate(0,0)"/>
<path d="" fill="#DADADA" transform="translate(0,0)"/>
<path d="" fill="#DEE1DF" transform="translate(0,0)"/>
<path d="" fill="#DCDCDC" transform="translate(0,0)"/>
<path d="" fill="#D8D8D8" transform="translate(0,0)"/>
<path d="" fill="#D8D8D8" transform="translate(0,0)"/>
<path d="" fill="#D8D8D8" transform="translate(0,0)"/>
<path d="" fill="#D9D9D9" transform="translate(0,0)"/>
<path d="" fill="#D8D8D8" transform="translate(0,0)"/>
<path d="" fill="#DCDCDC" transform="translate(0,0)"/>
<path d="" fill="#DEDEDE" transform="translate(0,0)"/>
<path d="" fill="#DDDDDD" transform="translate(0,0)"/>
<path d="" fill="#DDE1DD" transform="translate(0,0)"/>
<path d="" fill="#DDDDDD" transform="translate(0,0)"/>
<path d="" fill="#DDDDDD" transform="translate(0,0)"/>
<path d="" fill="#DDDDDD" transform="translate(0,0)"/>
<path d="" fill="#DDDDDD" transform="translate(0,0)"/>
<path d="" fill="#DEDEDE" transform="translate(0,0)"/>
<path d="" fill="#DDDDDD" transform="translate(0,0)"/>
<path d="" fill="#DBDBDB" transform="translate(0,0)"/>
<path d="" fill="#DCDCDC" transform="translate(0,0)"/>
<path d="" fill="#DADADA" transform="translate(0,0)"/>
<path d="" fill="#DBDBDB" transform="translate(0,0)"/>
<path d="" fill="#DBDBDB" transform="translate(0,0)"/>
<path d="" fill="#DBDBDB" transform="translate(0,0)"/>
<path d="" fill="#DBDBDB" transform="translate(0,0)"/>
<path d="" fill="#DBDBDB" transform="translate(0,0)"/>
<path d="" fill="#DBDBDB" transform="translate(0,0)"/>
<path d="" fill="#DBDBDB" transform="translate(0,0)"/>
<path d="" fill="#DCDCDC" transform="translate(0,0)"/>
<path d="" fill="#DCDCDC" transform="translate(0,0)"/>
<path d="" fill="#DBDBDB" transform="translate(0,0)"/>
<path d="" fill="#DBDBDB" transform="translate(0,0)"/>
<path d="" fill="#DCDCDC" transform="translate(0,0)"/>
<path d="" fill="#DCDCDC" transform="translate(0,0)"/>
<path d="" fill="#DCDCDC" transform="translate(0,0)"/>
<path d="" fill="#DCDCDC" transform="translate(0,0)"/>
</svg>
